<svg id="Layer_1" data-name="Layer 1" xmlns="http://www.w3.org/2000/svg" xmlns:xlink="http://www.w3.org/1999/xlink"
     viewBox="0 0 628.59 147.13">
    <defs>
        <style>
            .cls-1{fill:#0386cc;}.cls-2{fill:url(#linear-gradient);}.cls-3{fill:url(#linear-gradient-2);}.cls-4{fill:url(#linear-gradient-3);}.cls-5{fill:url(#linear-gradient-4);}.cls-6{fill:url(#linear-gradient-5);}.cls-7{fill:#fff;}
        </style>
        <linearGradient id="linear-gradient" x1="114.43" y1="-621.52" x2="70.86" y2="-622.89"
                        gradientTransform="matrix(1, 0, 0, -1, 0, -510)" gradientUnits="userSpaceOnUse">
            <stop offset="0" stop-color="#fff" stop-opacity="0.5"/>
            <stop offset="1" stop-color="#fff"/>
        </linearGradient>
        <linearGradient id="linear-gradient-2" x1="100.65" y1="-600.95" x2="55.09" y2="-604.31"
                        xlink:href="#linear-gradient"/>
        <linearGradient id="linear-gradient-3" x1="110.5" y1="-586.38" x2="39.88" y2="-582.71"
                        xlink:href="#linear-gradient"/>
        <linearGradient id="linear-gradient-4" x1="98.67" y1="-564.02" x2="49.6" y2="-564.47"
                        xlink:href="#linear-gradient"/>
        <linearGradient id="linear-gradient-5" x1="116.4" y1="-544.75" x2="70.54" y2="-545.06"
                        xlink:href="#linear-gradient"/>
    </defs>
    <rect class="cls-1" x="1" width="147.13" height="147.13" rx="27.17"/>
    <rect class="cls-2" x="71.5" y="104.24" width="41.57" height="15.96" rx="4.01"/>
    <rect class="cls-3" x="53.56" y="84.91" width="41.57" height="15.96" rx="4.01"/>
    <rect class="cls-4" x="35.62" y="65.58" width="41.57" height="15.96" rx="4.01"/>
    <rect class="cls-5" x="54" y="46.26" width="41.57" height="15.96" rx="4.01"/>
    <rect class="cls-6" x="71.94" y="26.94" width="41.57" height="15.96" rx="4.01"/>
    <path class="cls-7"
          d="M238.15,107.11H221.76l-17-23.85-2.36,2.82v21H189.85V43.39h12.57V66.56l19.39-23.17h16.38L213,73.43Z"/>
    <path class="cls-7"
          d="M273.75,61.59h12.56v45.52H273.7l-.59-4.73a14,14,0,0,1-4.55,4.28,12.59,12.59,0,0,1-6.51,1.64,23.64,23.64,0,0,1-9.52-1.92,24.82,24.82,0,0,1-7.78-5.28,24.35,24.35,0,0,1-5.26-7.8,24.1,24.1,0,0,1-1.89-9.54,23.12,23.12,0,0,1,6.79-16.57,23.68,23.68,0,0,1,7.44-5,22.66,22.66,0,0,1,9.08-1.82,15.85,15.85,0,0,1,7.53,1.77,21.79,21.79,0,0,1,5.85,4.51Zm-12,34.64a10.24,10.24,0,0,0,5.6-1.59,11.33,11.33,0,0,0,4-4.3,13.14,13.14,0,0,0,0-12,11.39,11.39,0,0,0-4-4.27,10.17,10.17,0,0,0-5.6-1.6,10.44,10.44,0,0,0-5.69,1.6,11.55,11.55,0,0,0-4.05,4.3,12.12,12.12,0,0,0-1.5,6,12,12,0,0,0,1.52,6,11.76,11.76,0,0,0,4.07,4.3A10.46,10.46,0,0,0,261.73,96.23Z"/>
    <path class="cls-7"
          d="M337.7,78.16v29H325.14V81.62A8.35,8.35,0,0,0,324,77.27a8.77,8.77,0,0,0-3.1-3.07,8.3,8.3,0,0,0-4.3-1.14A8.45,8.45,0,0,0,308,81.62v25.49H295.46l0-45.52H308L308,65a16.59,16.59,0,0,1,5.35-3.41,17.88,17.88,0,0,1,15.48,1.18,18.56,18.56,0,0,1,6.44,6.44A17.17,17.17,0,0,1,337.7,78.16Z"/>
    <path class="cls-7"
          d="M371.66,60.32a23.22,23.22,0,0,1,12.08,3.23,24.5,24.5,0,0,1,8.67,8.67,23.1,23.1,0,0,1,3.24,12,23.56,23.56,0,0,1-1.87,9.33A24.28,24.28,0,0,1,381,106.43a23.46,23.46,0,0,1-9.31,1.87,13.91,13.91,0,0,1-7-1.73,18.76,18.76,0,0,1-5.23-4.37v4.91H346.89V38.83h12.57V66.42A17.86,17.86,0,0,1,364.69,62,14,14,0,0,1,371.66,60.32Zm-.19,35.82a10.67,10.67,0,0,0,5.72-1.59,11.6,11.6,0,0,0,4.07-4.3,12.16,12.16,0,0,0,1.5-6A11.94,11.94,0,0,0,377.14,74a10.4,10.4,0,0,0-5.67-1.62A10,10,0,0,0,365.9,74,11.43,11.43,0,0,0,362,78.32a13.2,13.2,0,0,0,0,12,11.31,11.31,0,0,0,3.92,4.28A10.09,10.09,0,0,0,371.47,96.14Z"/>
    <path class="cls-7"
          d="M436.34,61.59H448.9v45.52H436.29l-.59-4.73a13.91,13.91,0,0,1-4.55,4.28,12.59,12.59,0,0,1-6.51,1.64,23.56,23.56,0,0,1-9.51-1.92,24.75,24.75,0,0,1-7.79-5.28,24.26,24.26,0,0,1-7.14-17.34A23.06,23.06,0,0,1,407,67.19a23.68,23.68,0,0,1,7.44-5,22.73,22.73,0,0,1,9.08-1.82A15.89,15.89,0,0,1,431,62.09a21.79,21.79,0,0,1,5.85,4.51Zm-12,34.64a10.22,10.22,0,0,0,5.6-1.59,11.33,11.33,0,0,0,4-4.3,13.06,13.06,0,0,0,0-12,11.39,11.39,0,0,0-4-4.27,10.14,10.14,0,0,0-5.6-1.6,10.47,10.47,0,0,0-5.69,1.6,11.55,11.55,0,0,0-4.05,4.3,12.62,12.62,0,0,0,0,12,11.79,11.79,0,0,0,4.08,4.3A10.45,10.45,0,0,0,424.32,96.23Z"/>
    <path class="cls-7"
          d="M500.29,78.16v29H487.73V81.62a8.35,8.35,0,0,0-1.16-4.35,8.68,8.68,0,0,0-3.1-3.07,8.3,8.3,0,0,0-4.3-1.14,8.43,8.43,0,0,0-8.55,8.56v25.49H458.05l0-45.52h12.56l.05,3.37A16.54,16.54,0,0,1,476,61.55a17.88,17.88,0,0,1,15.48,1.18,18.47,18.47,0,0,1,6.44,6.44A17.17,17.17,0,0,1,500.29,78.16Z"/>
    <path class="cls-7" d="M513.9,108.3a6.35,6.35,0,1,1,4.51-1.85A6.18,6.18,0,0,1,513.9,108.3Z"/>
    <path class="cls-7" d="M561.29,107.11H545L528.47,61.59h13.38l11.29,31.09,11.29-31.09h13.43Z"/>
    <path class="cls-7"
          d="M626.7,78.16v29H614.14V81.62A8.35,8.35,0,0,0,613,77.27a8.77,8.77,0,0,0-3.1-3.07,8.3,8.3,0,0,0-4.3-1.14A8.45,8.45,0,0,0,597,81.62v25.49H584.46l-.05-45.52H597L597,65a16.59,16.59,0,0,1,5.35-3.41,17.88,17.88,0,0,1,15.48,1.18,18.56,18.56,0,0,1,6.44,6.44A17.17,17.17,0,0,1,626.7,78.16Z"/>
</svg>
