<svg width="1920" height="1080" viewBox="0 0 1920 1080" fill="none" xmlns="http://www.w3.org/2000/svg">
<g clip-path="url(#clip0_1_2124)">
<rect width="1920" height="1080" fill="#F5FBFF"/>
<g filter="url(#filter0_f_1_2124)">
<circle cx="240" r="240" fill="#0086C9"/>
</g>
<g filter="url(#filter1_f_1_2124)">
<circle cx="1680" cy="1060" r="240" fill="#0086C9"/>
</g>
<g opacity="0.5">
<g opacity="0.15">
<path d="M215.301 640.755H215.464L285.581 801.783L32.6299 646.065L215.301 640.755ZM215.163 641.242L34.3128 646.513L284.526 800.555L215.163 641.242Z" fill="#0086C9"/>
<path d="M119.375 924.797L285.079 801.438L445.86 880.961L446.073 880.525L285.029 800.875L120.317 923.492L216.444 639.86L73.0952 772.93L73.4218 773.301L215.389 641.498L119.375 924.797Z" fill="#0086C9"/>
<path d="M275.923 903.134L284.815 801.143H285.293L276.401 903.032L445.948 880.474L446.01 880.947L276.363 903.556L261.38 1075.31L119.677 924.323L119.35 923.978L275.923 903.134ZM275.923 903.62L120.342 924.323L261.003 1074.23L275.923 903.62Z" fill="#0086C9"/>
<path d="M445.797 880.576L446.299 880.052L426.205 1038.37V1038.55L261.305 1075.03L260.526 1075.19L445.797 880.576ZM445.634 881.446L261.908 1074.37L425.715 1038.2L445.634 881.446Z" fill="#0086C9"/>
<path d="M261.141 1075.01L562.156 1139.48L426.619 1038.55L657.781 1030.38L657.768 1029.9L425.238 1038.11L560.084 1138.54L261.242 1074.54L261.141 1075.01Z" fill="#0086C9"/>
<path d="M269.468 979.817L376.032 954.584L657.329 1030.27L560.938 1138.85L466.871 1230.81L426.155 1038.29L425.703 1038.38L466.595 1231.77L466.896 1231.46L561.29 1139.18L658.208 1030.01L657.831 1029.91L376.044 954.085L269.355 979.343L269.468 979.817Z" fill="#0086C9"/>
<path d="M275.346 903.134L375.617 954.187L375.403 954.622L275.484 903.748L139.407 1075.01L261.229 1074.54H261.305L466.745 1231.04L616.461 1195.85L560.348 1138.62L718.83 1172.29L617.454 1196.12L691.338 1271.48L691.012 1271.82L616.914 1196.25L466.745 1231.54H466.645L261.104 1075.03L138.904 1075.5H138.415L275.346 903.134ZM716.67 1172.31L561.918 1139.42L617.114 1195.72L716.67 1172.31Z" fill="#0086C9"/>
<path d="M466.494 1231.29V1231.01L690.974 1271.37L717.461 1172.32L657.542 1030.29L657.981 1030.1L717.926 1172.21L803.515 1374.72L691.1 1271.96L463.944 1322.38L463.643 1322.46L466.494 1231.29ZM466.959 1231.59L464.145 1321.85L689.932 1271.68L466.959 1231.59ZM717.775 1173.04L691.401 1271.56L802.197 1372.83L717.775 1173.04Z" fill="#0086C9"/>
<path d="M724.645 929.928L722.133 1022.3L815.334 1011.27L717.499 1173.2L721.643 1022.83L657.316 1030.45L724.645 929.928ZM724.13 931.565L658.27 1029.85L721.618 1022.35L724.13 931.565ZM722.083 1022.85L717.989 1171.4L814.379 1011.87L722.083 1022.85Z" fill="#0086C9"/>
<path d="M183.602 737.782L126.772 802.487L285.016 800.926H285.154L426.443 1038.8L119.802 924.388L25.6093 916.89L125.692 803.012L-27.8545 804.522L183.602 737.782ZM182.107 738.767L-24.6017 804.023L126.107 802.539L182.107 738.767ZM284.916 801.464L126.396 802.974L26.6768 916.493L119.928 923.901L425.401 1037.88L284.916 801.464Z" fill="#0086C9"/>
<path d="M179.143 1133.31L138.678 1075.31L119.613 924.183L120.078 924.119L139.143 1075.17L179.47 1133.03L261.518 1074.26L238.761 1218.91L179.357 1133.7L40.994 1232.82L40.7302 1232.42L179.143 1133.31ZM260.865 1075.31L179.746 1133.42L238.472 1217.67L260.865 1075.31Z" fill="#0086C9"/>
<path d="M814.706 1011.25L561.021 1138.76L561.232 1139.2L814.917 1011.68L814.706 1011.25Z" fill="#0086C9"/>
<path d="M547.6 1420.84L691.916 1269.97L691.577 1269.64L548.128 1419.59L553.402 1302.33H553.34C553.44 1301.85 553.515 1300.29 553.767 1295.32C553.993 1290.86 554.307 1284.47 554.683 1276.82C555.437 1261.46 556.442 1241.09 557.434 1220.69C559.431 1179.86 561.402 1139.03 561.402 1139.03V1138.94L561.34 1138.87L435.749 971.256L717.674 1172.55H717.775L790.768 1154.64L722.07 1022.45L721.643 1022.68L790.102 1154.3L717.775 1172.04L433.489 969.004L560.938 1139.09C560.724 1143.57 553.34 1295.76 552.95 1302.09V1302.32L547.6 1420.84Z" fill="#0086C9"/>
<path d="M-15.0066 1104.58L138.414 1075.59L40.4038 1232.89L40.8811 1232.85L238.786 1218.51L238.836 1218.37L329.977 1003.15L465.489 1322.84L465.929 1322.65L329.977 1001.93L329.764 1002.44L238.46 1218.05L41.3206 1232.34L139.407 1074.91L138.867 1075.01L-13.8889 1103.88L120.116 924.182L120.078 924.067L34.0615 645.234L33.8229 645.886L-26.5735 804.445L-26.1214 804.624L34.0113 646.705L119.588 924.093L-15.0066 1104.58Z" fill="#0086C9"/>
<path d="M26.4294 916.681L25.9526 916.703L40.5226 1232.64L40.9993 1232.62L26.4294 916.681Z" fill="#0086C9"/>
<path d="M227.05 964.039L39.7295 1031.25L39.888 1031.7L227.208 964.498L227.05 964.039Z" fill="#0086C9"/>
<path d="M183.068 738.214L182.654 738.455L275.472 903.306L275.886 903.064L183.068 738.214Z" fill="#0086C9"/>
<path d="M218.189 801.71L119.691 924.009L120.06 924.317L218.558 802.018L218.189 801.71Z" fill="#0086C9"/>
<path d="M-33.6943 999.15L138.942 1075.52L139.055 1075.45L268.287 980.686L179.282 1133.32L179.684 1133.58L269.857 978.934L138.879 1074.97L-32.5515 999.137L120.292 924.196L119.99 923.952L-26.1966 804.343L-26.498 804.726L119.4 924.093L-33.6943 999.15Z" fill="#0086C9"/>
<path d="M525.446 1034.83L524.996 1034.99L560.868 1139.18L561.318 1139.02L525.446 1034.83Z" fill="#0086C9"/>
<path d="M657.968 1030.04L657.496 1030.11L691.019 1271.59L691.491 1271.52L657.968 1030.04Z" fill="#0086C9"/>
<path d="M483.955 1036.25L466.469 1231.26L466.944 1231.3L484.43 1036.3L483.955 1036.25Z" fill="#0086C9"/>
<path d="M374.16 951.834C373.594 952.286 373.199 952.924 373.044 953.639C372.889 954.355 372.982 955.103 373.309 955.756C373.635 956.409 374.174 956.926 374.833 957.219C375.493 957.512 376.231 957.562 376.923 957.361C377.292 957.283 377.635 957.106 377.915 956.85C378.485 956.398 378.882 955.758 379.038 955.04C379.195 954.322 379.1 953.571 378.772 952.916C378.443 952.261 377.9 951.744 377.237 951.453C376.574 951.162 375.833 951.116 375.14 951.322C374.774 951.401 374.436 951.577 374.16 951.834Z" fill="#0086C9"/>
<path d="M444.139 878.261C443.569 878.713 443.172 879.353 443.016 880.071C442.859 880.789 442.954 881.54 443.283 882.195C443.611 882.849 444.154 883.367 444.817 883.658C445.48 883.949 446.222 883.995 446.914 883.789C447.279 883.708 447.617 883.532 447.894 883.277C448.464 882.825 448.861 882.185 449.017 881.467C449.173 880.749 449.079 879.998 448.75 879.344C448.422 878.689 447.879 878.172 447.216 877.881C446.553 877.59 445.811 877.543 445.119 877.75C444.757 877.839 444.421 878.014 444.139 878.261Z" fill="#0086C9"/>
<path d="M338.769 892.259C338.199 892.71 337.802 893.35 337.645 894.068C337.489 894.786 337.583 895.537 337.912 896.192C338.241 896.847 338.784 897.364 339.447 897.655C340.109 897.946 340.851 897.992 341.544 897.786C341.906 897.697 342.242 897.521 342.524 897.274C343.093 896.823 343.491 896.183 343.647 895.465C343.803 894.747 343.709 893.996 343.38 893.341C343.051 892.686 342.509 892.169 341.846 891.878C341.183 891.587 340.441 891.54 339.748 891.747C339.383 891.825 339.044 892.002 338.769 892.259Z" fill="#0086C9"/>
<path d="M283.17 798.662C282.615 799.12 282.232 799.758 282.084 800.47C281.937 801.182 282.034 801.924 282.359 802.571C282.684 803.219 283.218 803.733 283.871 804.028C284.524 804.322 285.256 804.379 285.945 804.189C286.307 804.1 286.643 803.925 286.925 803.677C287.491 803.226 287.886 802.587 288.041 801.872C288.196 801.156 288.103 800.408 287.776 799.755C287.45 799.102 286.911 798.585 286.252 798.292C285.592 797.999 284.854 797.949 284.162 798.15C283.793 798.228 283.45 798.405 283.17 798.662Z" fill="#0086C9"/>
<path d="M213.681 638.568C213.111 639.02 212.714 639.66 212.558 640.378C212.401 641.095 212.496 641.847 212.825 642.501C213.153 643.156 213.696 643.673 214.359 643.964C215.022 644.255 215.764 644.302 216.456 644.095C216.822 644.017 217.16 643.84 217.436 643.584C218.006 643.132 218.403 642.492 218.559 641.774C218.715 641.056 218.621 640.305 218.292 639.65C217.964 638.995 217.421 638.478 216.758 638.187C216.095 637.896 215.353 637.85 214.661 638.056C214.295 638.135 213.957 638.311 213.681 638.568Z" fill="#0086C9"/>
<path d="M180.977 735.774C180.411 736.225 180.016 736.864 179.861 737.579C179.705 738.295 179.799 739.043 180.125 739.696C180.452 740.349 180.991 740.866 181.65 741.159C182.31 741.452 183.048 741.502 183.74 741.301C184.105 741.212 184.445 741.037 184.732 740.789C185.302 740.338 185.699 739.698 185.855 738.98C186.012 738.262 185.917 737.511 185.588 736.856C185.26 736.201 184.717 735.684 184.054 735.393C183.391 735.102 182.649 735.055 181.957 735.262C181.591 735.34 181.253 735.517 180.977 735.774Z" fill="#0086C9"/>
<path d="M216.507 799.378C215.937 799.83 215.54 800.47 215.383 801.188C215.227 801.906 215.321 802.657 215.65 803.311C215.979 803.966 216.522 804.484 217.184 804.775C217.847 805.066 218.589 805.112 219.282 804.906C219.648 804.827 219.986 804.65 220.262 804.394C220.828 803.942 221.223 803.304 221.378 802.588C221.533 801.873 221.44 801.124 221.113 800.471C220.787 799.818 220.248 799.301 219.589 799.008C218.929 798.716 218.19 798.665 217.499 798.866C217.131 798.95 216.79 799.126 216.507 799.378Z" fill="#0086C9"/>
<path d="M117.969 921.636C117.399 922.088 117.002 922.728 116.846 923.446C116.689 924.164 116.784 924.915 117.112 925.569C117.441 926.224 117.984 926.741 118.647 927.032C119.31 927.323 120.051 927.37 120.744 927.163C121.11 927.085 121.448 926.908 121.724 926.652C122.29 926.2 122.685 925.562 122.84 924.846C122.995 924.131 122.902 923.382 122.575 922.729C122.249 922.076 121.71 921.559 121.051 921.266C120.391 920.974 119.653 920.923 118.961 921.124C118.592 921.202 118.249 921.379 117.969 921.636Z" fill="#0086C9"/>
<path d="M225.273 961.673C224.718 962.131 224.335 962.77 224.187 963.481C224.04 964.193 224.137 964.935 224.462 965.583C224.787 966.23 225.321 966.744 225.974 967.039C226.627 967.333 227.359 967.39 228.048 967.2C228.418 967.122 228.76 966.945 229.04 966.689C229.595 966.23 229.978 965.592 230.126 964.88C230.273 964.168 230.177 963.427 229.851 962.779C229.526 962.131 228.992 961.617 228.339 961.323C227.687 961.028 226.954 960.971 226.265 961.161C225.896 961.239 225.553 961.416 225.273 961.673Z" fill="#0086C9"/>
<path d="M236.589 833.478C236.019 833.929 235.622 834.569 235.465 835.287C235.309 836.005 235.404 836.756 235.732 837.411C236.061 838.066 236.604 838.583 237.267 838.874C237.929 839.165 238.671 839.211 239.364 839.005C239.729 838.924 240.066 838.748 240.344 838.493C240.913 838.042 241.311 837.402 241.467 836.684C241.623 835.966 241.529 835.215 241.2 834.56C240.871 833.905 240.329 833.388 239.666 833.097C239.003 832.806 238.261 832.76 237.568 832.966C237.203 833.045 236.865 833.221 236.589 833.478Z" fill="#0086C9"/>
<path d="M267.421 977.449C266.855 977.901 266.46 978.539 266.305 979.255C266.149 979.97 266.243 980.719 266.569 981.372C266.896 982.025 267.435 982.542 268.094 982.835C268.753 983.127 269.492 983.178 270.184 982.977C270.549 982.888 270.889 982.712 271.176 982.465C271.746 982.013 272.143 981.373 272.299 980.655C272.455 979.937 272.361 979.186 272.032 978.532C271.704 977.877 271.161 977.36 270.498 977.069C269.835 976.778 269.093 976.731 268.4 976.938C268.035 977.016 267.697 977.193 267.421 977.449Z" fill="#0086C9"/>
<path d="M327.968 1000.07C327.402 1000.52 327.007 1001.16 326.852 1001.88C326.696 1002.59 326.79 1003.34 327.116 1003.99C327.443 1004.65 327.982 1005.16 328.641 1005.46C329.3 1005.75 330.039 1005.8 330.731 1005.6C331.096 1005.51 331.436 1005.33 331.723 1005.09C332.293 1004.64 332.69 1004 332.846 1003.28C333.003 1002.56 332.908 1001.81 332.579 1001.15C332.251 1000.5 331.708 999.981 331.045 999.69C330.382 999.399 329.64 999.353 328.948 999.559C328.582 999.638 328.244 999.815 327.968 1000.07Z" fill="#0086C9"/>
<path d="M424.107 1035.64C423.538 1036.09 423.141 1036.73 422.984 1037.45C422.828 1038.17 422.922 1038.92 423.251 1039.58C423.58 1040.23 424.122 1040.75 424.785 1041.04C425.448 1041.33 426.19 1041.38 426.883 1041.17C427.245 1041.08 427.58 1040.91 427.863 1040.66C428.432 1040.21 428.829 1039.57 428.986 1038.85C429.142 1038.13 429.048 1037.38 428.719 1036.72C428.39 1036.07 427.848 1035.55 427.185 1035.26C426.522 1034.97 425.78 1034.92 425.087 1035.13C424.722 1035.21 424.385 1035.39 424.107 1035.64Z" fill="#0086C9"/>
<path d="M432.723 967.585C432.168 968.043 431.785 968.681 431.637 969.393C431.49 970.105 431.587 970.847 431.912 971.494C432.237 972.142 432.771 972.656 433.424 972.951C434.077 973.245 434.809 973.302 435.498 973.112C435.864 973.034 436.202 972.857 436.478 972.6C437.044 972.149 437.439 971.51 437.594 970.795C437.749 970.079 437.656 969.331 437.329 968.678C437.003 968.025 436.464 967.508 435.805 967.215C435.145 966.922 434.407 966.872 433.715 967.073C433.349 967.162 433.01 967.337 432.723 967.585Z" fill="#0086C9"/>
<path d="M482.293 1033.77C481.724 1034.23 481.327 1034.87 481.17 1035.58C481.014 1036.3 481.108 1037.05 481.437 1037.71C481.766 1038.36 482.308 1038.88 482.971 1039.17C483.634 1039.46 484.376 1039.51 485.069 1039.3C485.434 1039.22 485.773 1039.05 486.049 1038.79C486.615 1038.34 487.009 1037.7 487.165 1036.98C487.32 1036.27 487.227 1035.52 486.9 1034.87C486.574 1034.21 486.035 1033.7 485.375 1033.4C484.716 1033.11 483.977 1033.06 483.286 1033.26C482.916 1033.34 482.574 1033.52 482.293 1033.77Z" fill="#0086C9"/>
<path d="M523.361 1032.33C522.807 1032.79 522.423 1033.43 522.276 1034.14C522.128 1034.85 522.225 1035.59 522.55 1036.24C522.875 1036.89 523.409 1037.4 524.062 1037.69C524.715 1037.99 525.447 1038.05 526.137 1037.86C526.498 1037.77 526.834 1037.59 527.116 1037.34C527.686 1036.89 528.083 1036.25 528.239 1035.53C528.396 1034.82 528.301 1034.07 527.973 1033.41C527.644 1032.76 527.101 1032.24 526.438 1031.95C525.775 1031.66 525.034 1031.61 524.341 1031.82C523.975 1031.9 523.637 1032.07 523.361 1032.33Z" fill="#0086C9"/>
<path d="M655.897 1027.65C655.342 1028.1 654.959 1028.74 654.811 1029.45C654.664 1030.17 654.761 1030.91 655.086 1031.56C655.411 1032.2 655.945 1032.72 656.598 1033.01C657.251 1033.31 657.983 1033.36 658.672 1033.17C659.036 1033.08 659.372 1032.9 659.652 1032.65C660.206 1032.19 660.59 1031.55 660.737 1030.84C660.885 1030.13 660.788 1029.39 660.463 1028.74C660.138 1028.09 659.604 1027.58 658.951 1027.28C658.298 1026.99 657.566 1026.93 656.876 1027.12C656.512 1027.21 656.175 1027.39 655.897 1027.65Z" fill="#0086C9"/>
<path d="M722.321 929.441C721.752 929.893 721.354 930.533 721.198 931.251C721.042 931.969 721.136 932.72 721.465 933.375C721.794 934.029 722.336 934.547 722.999 934.838C723.662 935.129 724.404 935.175 725.097 934.969C725.462 934.89 725.8 934.713 726.076 934.457C726.643 934.005 727.037 933.367 727.193 932.651C727.348 931.936 727.254 931.188 726.928 930.535C726.602 929.882 726.063 929.364 725.403 929.072C724.744 928.779 724.005 928.728 723.313 928.929C722.944 929.008 722.602 929.184 722.321 929.441Z" fill="#0086C9"/>
<path d="M720.287 1020.16C719.721 1020.61 719.326 1021.25 719.171 1021.97C719.016 1022.68 719.109 1023.43 719.435 1024.08C719.762 1024.73 720.301 1025.25 720.96 1025.54C721.62 1025.84 722.358 1025.89 723.05 1025.69C723.419 1025.61 723.762 1025.43 724.042 1025.18C724.612 1024.72 725.009 1024.08 725.165 1023.37C725.322 1022.65 725.227 1021.9 724.899 1021.24C724.57 1020.59 724.027 1020.07 723.364 1019.78C722.701 1019.49 721.959 1019.44 721.267 1019.65C720.901 1019.73 720.563 1019.9 720.287 1020.16Z" fill="#0086C9"/>
<path d="M812.96 1009.07C812.394 1009.52 811.999 1010.16 811.844 1010.87C811.688 1011.59 811.782 1012.34 812.108 1012.99C812.435 1013.64 812.974 1014.16 813.633 1014.45C814.292 1014.74 815.031 1014.79 815.723 1014.59C816.088 1014.5 816.428 1014.33 816.715 1014.08C817.285 1013.63 817.682 1012.99 817.838 1012.27C817.995 1011.55 817.9 1010.8 817.571 1010.15C817.243 1009.49 816.7 1008.98 816.037 1008.69C815.374 1008.39 814.632 1008.35 813.939 1008.55C813.574 1008.63 813.236 1008.81 812.96 1009.07Z" fill="#0086C9"/>
<path d="M259.308 1072.28C258.706 1072.71 258.276 1073.35 258.096 1074.08C257.917 1074.81 257.998 1075.58 258.327 1076.26C258.655 1076.93 259.209 1077.46 259.888 1077.76C260.568 1078.05 261.328 1078.09 262.033 1077.87C262.399 1077.79 262.737 1077.61 263.013 1077.36C263.579 1076.9 263.974 1076.26 264.129 1075.55C264.284 1074.83 264.191 1074.09 263.864 1073.43C263.538 1072.78 262.999 1072.26 262.34 1071.97C261.68 1071.68 260.941 1071.63 260.25 1071.83C259.904 1071.9 259.581 1072.05 259.308 1072.28Z" fill="#0086C9"/>
<path d="M137.146 1072.39C136.577 1072.84 136.179 1073.48 136.023 1074.2C135.867 1074.92 135.961 1075.67 136.29 1076.32C136.619 1076.98 137.161 1077.5 137.824 1077.79C138.487 1078.08 139.229 1078.12 139.922 1077.92C140.287 1077.84 140.625 1077.66 140.901 1077.41C141.471 1076.95 141.868 1076.31 142.024 1075.6C142.181 1074.88 142.086 1074.13 141.758 1073.47C141.429 1072.82 140.886 1072.3 140.223 1072.01C139.56 1071.72 138.819 1071.67 138.126 1071.88C137.76 1071.96 137.422 1072.13 137.146 1072.39Z" fill="#0086C9"/>
<path d="M37.9676 1028.92C37.413 1029.38 37.0298 1030.02 36.8822 1030.73C36.7346 1031.44 36.8315 1032.19 37.1567 1032.83C37.4819 1033.48 38.0157 1034 38.6686 1034.29C39.3215 1034.58 40.0539 1034.64 40.7431 1034.45C41.1039 1034.36 41.439 1034.19 41.7227 1033.94C42.2924 1033.49 42.6896 1032.85 42.8459 1032.13C43.0022 1031.41 42.9079 1030.66 42.5791 1030.01C42.2503 1029.35 41.7077 1028.83 41.0448 1028.54C40.3818 1028.25 39.64 1028.21 38.9472 1028.41C38.5817 1028.49 38.2436 1028.67 37.9676 1028.92Z" fill="#0086C9"/>
<path d="M137.698 709.185C137.129 709.636 136.732 710.276 136.575 710.994C136.419 711.712 136.513 712.463 136.842 713.118C137.171 713.773 137.713 714.29 138.376 714.581C139.039 714.872 139.781 714.919 140.474 714.712C140.839 714.634 141.178 714.457 141.454 714.2C142.02 713.749 142.414 713.11 142.57 712.395C142.725 711.679 142.632 710.931 142.305 710.278C141.979 709.625 141.44 709.108 140.78 708.815C140.121 708.522 139.382 708.472 138.691 708.673C138.321 708.751 137.979 708.928 137.698 709.185Z" fill="#0086C9"/>
<path d="M273.801 900.615C273.246 901.073 272.863 901.711 272.715 902.423C272.568 903.135 272.665 903.877 272.99 904.524C273.315 905.172 273.849 905.686 274.502 905.981C275.154 906.275 275.887 906.332 276.576 906.142C276.942 906.063 277.28 905.887 277.556 905.63C278.122 905.178 278.517 904.54 278.672 903.825C278.827 903.109 278.734 902.361 278.407 901.708C278.081 901.055 277.542 900.538 276.883 900.245C276.223 899.952 275.484 899.902 274.793 900.103C274.425 900.187 274.084 900.362 273.801 900.615Z" fill="#0086C9"/>
</g>
<path d="M879.938 1153.24L623.344 1003.93L795.541 987.941L795.616 988.082L879.938 1153.24ZM624.902 1004.28L878.82 1152L795.265 988.453L624.902 1004.28Z" fill="#0086C9"/>
<path d="M598.778 1211.73L623.871 1004.22L477.42 899.846L477.684 899.449L624.374 1003.99L599.444 1210.26L795.817 986.636L751.509 1178.99L751.044 1178.87L794.938 988.376L598.778 1211.73Z" fill="#0086C9"/>
<path d="M599.507 1211.36L599.055 1211.23L400.622 1158.65L540.605 1061.69L477.333 899.743L477.772 899.564L540.969 1061.41L623.984 1003.91L624.261 1004.31L541.145 1061.88L599.507 1211.36ZM401.715 1158.48L598.716 1210.67L540.743 1062.24L401.715 1158.48Z" fill="#0086C9"/>
<path d="M401.15 1159.4L400.924 1158.63L351.943 994.108L352.081 994.006L478.049 899.027L477.848 899.718L401.15 1159.4ZM352.458 994.3L401.137 1157.72L477.107 900.281L352.458 994.3Z" fill="#0086C9"/>
<path d="M400.974 1158.71L199.15 922.212L351.667 993.687L246.134 783.998L246.56 783.781L352.722 994.71L200.971 923.594L401.325 1158.39L400.974 1158.71Z" fill="#0086C9"/>
<path d="M478.538 1104.95L448.283 997.832L246.447 784.344L200.28 922.98L167.225 1051.47L352.119 993.968L352.257 994.429L166.559 1052.19L166.66 1051.76L199.828 922.84L246.246 783.436L246.522 783.717L448.71 997.589L478.99 1104.83L478.538 1104.95Z" fill="#0086C9"/>
<path d="M460.303 1268.17L460.064 1267.72L401.037 1158.75L166.698 1052.01V1051.9L123.884 901.139L22.9722 871.991L23.0978 871.518L123.683 900.588L94.7973 798.764L200.808 923.364L124.374 901.292L167.074 1051.66L401.3 1158.36V1158.44L460.177 1267.04L540.844 1062.58L448.56 998.408L448.836 998.011L541.421 1062.38L460.303 1268.17ZM124.223 900.742L199.351 922.494L95.8145 800.786L124.223 900.742Z" fill="#0086C9"/>
<path d="M90.2381 1098.95L90.1503 1098.66L22.8464 871.94L-120 821.962L95.2617 799.545L246.322 783.691V784.178L95.3873 799.98L23.4116 871.774L167.25 1051.89L167.012 1052.05L90.2381 1098.95ZM23.6753 872.861L90.5773 1098.22L166.584 1051.76L23.6753 872.861ZM-117.739 822.179L22.972 871.479L94.6338 800.069L-117.739 822.179Z" fill="#0086C9"/>
<path d="M246.322 784.471L221.53 723.528L94.6838 800.427L185.875 634.524L221.794 722.811L299.71 675.584L246.322 784.471ZM221.944 723.272L246.372 783.307L298.555 676.851L221.944 723.272ZM185.775 635.637L95.9272 799.084L221.354 723.08L185.775 635.637Z" fill="#0086C9"/>
<path d="M773.613 1284.19L700.155 1146.81L651.175 1291.39L598.904 1211.23L351.491 994.006L624.223 1003.93L624.299 1004.06L700.055 1145.68L727.848 1063.6L773.613 1284.19ZM700.343 1146.19L772.457 1281.04L727.735 1065.35L700.343 1146.19ZM352.86 994.479L599.293 1210.83L651.049 1290.16L699.841 1146.23L623.972 1004.34L352.86 994.479Z" fill="#0086C9"/>
<path d="M186.055 635.027L185.578 635.052L199.841 922.885L200.317 922.861L186.055 635.027Z" fill="#0086C9"/>
<path d="M-34.9756 1072.15L24.0518 870.263L24.504 870.404L-34.1718 1071.06L63.7886 1009.33C64.1528 1009 65.4464 1008.18 69.5909 1005.5L85.0008 995.682L131.796 965.895L199.866 922.621H199.941H200.029L404.93 952.754L95.0857 799.928V799.813L74.9033 726.112L221.706 722.939V723.438L75.5187 726.598L95.5378 799.531L407.956 953.752L200.117 923.159C196.349 925.539 69.503 1006.2 64.2407 1009.63L64.0523 1009.74L-34.9756 1072.15Z" fill="#0086C9"/>
<path d="M510.061 1418.85L460.227 1268.2L373.067 1432L372.866 1431.56L288.821 1248.47L288.909 1248.35L429.068 1062.46L89.0072 1097.51L88.957 1097.02L430.123 1061.86L429.784 1062.31L289.374 1248.53L373.105 1430.93L460.328 1266.99L460.503 1267.52L510.124 1417.52L598.942 1210.78L599.067 1210.76L880 1151.55L879.56 1152.09L773.01 1283.02L772.646 1282.72L878.757 1152.31L599.281 1211.21L510.061 1418.85Z" fill="#0086C9"/>
<path d="M541.252 1061.83L541.246 1062.32L727.771 1064.67L727.777 1064.18L541.252 1061.83Z" fill="#0086C9"/>
<path d="M655.751 1063.7L598.866 1210.9L599.31 1211.08L656.195 1063.87L655.751 1063.7Z" fill="#0086C9"/>
<path d="M306.808 903.844L200.017 922.637L200.099 923.116L306.889 904.323L306.808 903.844Z" fill="#0086C9"/>
<path d="M243.956 782.456L21.3259 870.257L21.4977 870.709L244.128 782.908L243.956 782.456Z" fill="#0086C9"/>
<path d="M325.44 941.154L166.775 1051.67L167.044 1052.07L325.71 941.555L325.44 941.154Z" fill="#0086C9"/>
<path d="M289.374 1249.39L166.735 1052.02L-105.168 940.33L-104.703 940.087L22.8463 871.581L74.7277 726.816L-118.794 822.269L-118.995 821.834L75.5817 725.857L23.2231 871.914L23.1478 871.965L-104.038 940.266L167.049 1051.64L167.099 1051.7L288.834 1247.59L279.804 1016.64L280.281 1016.63L289.374 1249.39Z" fill="#0086C9"/>
<path d="M451.561 998.165C451.451 998.892 451.096 999.557 450.556 1000.05C450.016 1000.53 449.326 1000.82 448.604 1000.84C447.882 1000.87 447.175 1000.64 446.602 1000.19C446.03 999.738 445.63 999.1 445.47 998.382C445.382 998.016 445.382 997.635 445.47 997.269C445.592 996.552 445.951 995.899 446.489 995.419C447.027 994.94 447.71 994.664 448.424 994.637C449.138 994.61 449.839 994.834 450.411 995.271C450.982 995.708 451.388 996.332 451.561 997.039C451.662 997.407 451.662 997.796 451.561 998.165Z" fill="#0086C9"/>
<path d="M480.623 900.102C480.502 900.82 480.142 901.473 479.604 901.952C479.066 902.431 478.383 902.707 477.669 902.734C476.955 902.761 476.254 902.537 475.682 902.1C475.111 901.663 474.705 901.039 474.532 900.332C474.432 899.964 474.432 899.575 474.532 899.206C474.647 898.486 475.003 897.828 475.54 897.344C476.077 896.861 476.762 896.582 477.478 896.555C478.195 896.528 478.898 896.754 479.469 897.195C480.04 897.637 480.443 898.266 480.61 898.976C480.709 899.344 480.713 899.732 480.623 900.102Z" fill="#0086C9"/>
<path d="M519.87 1000.65C519.755 1001.37 519.399 1002.03 518.862 1002.51C518.324 1002.99 517.639 1003.27 516.923 1003.3C516.207 1003.33 515.504 1003.1 514.933 1002.66C514.362 1002.22 513.958 1001.59 513.791 1000.88C513.697 1000.51 513.697 1000.12 513.791 999.751C513.901 999.024 514.257 998.359 514.797 997.87C515.337 997.381 516.027 997.1 516.748 997.074C517.47 997.048 518.178 997.28 518.75 997.729C519.322 998.178 519.723 998.816 519.882 999.534C519.979 999.899 519.974 1000.28 519.87 1000.65Z" fill="#0086C9"/>
<path d="M627.187 1004.56C627.064 1005.28 626.703 1005.93 626.164 1006.41C625.626 1006.89 624.942 1007.16 624.228 1007.19C623.514 1007.21 622.813 1006.99 622.243 1006.55C621.673 1006.11 621.268 1005.49 621.096 1004.78C621.002 1004.41 621.002 1004.02 621.096 1003.65C621.219 1002.94 621.58 1002.28 622.119 1001.81C622.658 1001.33 623.341 1001.05 624.055 1001.03C624.769 1001 625.47 1001.23 626.04 1001.67C626.61 1002.11 627.015 1002.73 627.187 1003.44C627.275 1003.81 627.275 1004.19 627.187 1004.56Z" fill="#0086C9"/>
<path d="M798.304 988.466C798.18 989.183 797.819 989.835 797.281 990.312C796.742 990.79 796.058 991.065 795.345 991.09C794.631 991.116 793.93 990.891 793.36 990.452C792.789 990.014 792.384 989.389 792.212 988.683C792.112 988.319 792.112 987.934 792.212 987.57C792.321 986.842 792.675 986.176 793.214 985.686C793.753 985.196 794.443 984.913 795.164 984.886C795.886 984.858 796.595 985.088 797.168 985.536C797.741 985.984 798.143 986.622 798.304 987.34C798.391 987.71 798.391 988.096 798.304 988.466Z" fill="#0086C9"/>
<path d="M730.861 1064.89C730.74 1065.61 730.38 1066.26 729.843 1066.74C729.305 1067.22 728.622 1067.5 727.908 1067.52C727.194 1067.55 726.492 1067.33 725.921 1066.89C725.35 1066.45 724.944 1065.83 724.77 1065.12C724.677 1064.75 724.677 1064.37 724.77 1064C724.892 1063.28 725.251 1062.63 725.789 1062.15C726.327 1061.67 727.01 1061.39 727.724 1061.36C728.438 1061.34 729.14 1061.56 729.711 1062C730.282 1062.44 730.688 1063.06 730.861 1063.77C730.949 1064.14 730.949 1064.52 730.861 1064.89Z" fill="#0086C9"/>
<path d="M659.024 1064.24C658.901 1064.96 658.54 1065.61 658.001 1066.09C657.463 1066.56 656.779 1066.84 656.065 1066.86C655.351 1066.89 654.65 1066.66 654.08 1066.23C653.51 1065.79 653.105 1065.16 652.933 1064.46C652.832 1064.09 652.832 1063.7 652.933 1063.33C653.056 1062.61 653.417 1061.96 653.956 1061.48C654.495 1061.01 655.178 1060.73 655.892 1060.71C656.606 1060.68 657.307 1060.91 657.877 1061.34C658.447 1061.78 658.852 1062.41 659.024 1063.11C659.112 1063.48 659.112 1063.87 659.024 1064.24Z" fill="#0086C9"/>
<path d="M620.041 1062.95C619.926 1063.67 619.57 1064.33 619.032 1064.81C618.495 1065.29 617.81 1065.57 617.094 1065.6C616.378 1065.63 615.675 1065.4 615.104 1064.96C614.533 1064.52 614.129 1063.89 613.962 1063.18C613.862 1062.81 613.862 1062.42 613.962 1062.05C614.079 1061.33 614.437 1060.67 614.975 1060.19C615.513 1059.71 616.198 1059.43 616.914 1059.41C617.63 1059.38 618.333 1059.61 618.903 1060.05C619.473 1060.49 619.875 1061.12 620.041 1061.83C620.141 1062.2 620.141 1062.58 620.041 1062.95Z" fill="#0086C9"/>
<path d="M432.698 1062.76C432.575 1063.47 432.214 1064.12 431.675 1064.6C431.136 1065.08 430.453 1065.35 429.739 1065.38C429.025 1065.41 428.324 1065.18 427.754 1064.74C427.184 1064.3 426.779 1063.68 426.607 1062.97C426.512 1062.61 426.512 1062.22 426.607 1061.86C426.715 1061.13 427.069 1060.47 427.608 1059.98C428.147 1059.49 428.837 1059.2 429.559 1059.17C430.28 1059.15 430.989 1059.38 431.562 1059.83C432.135 1060.27 432.537 1060.91 432.698 1061.63C432.786 1062 432.786 1062.39 432.698 1062.76Z" fill="#0086C9"/>
<path d="M355.384 994.518C355.261 995.235 354.9 995.887 354.362 996.365C353.823 996.843 353.139 997.117 352.425 997.143C351.712 997.168 351.011 996.943 350.441 996.505C349.87 996.067 349.465 995.442 349.293 994.736C349.205 994.366 349.205 993.98 349.293 993.61C349.416 992.893 349.777 992.241 350.316 991.763C350.855 991.285 351.538 991.01 352.252 990.985C352.966 990.959 353.667 991.185 354.237 991.623C354.807 992.061 355.212 992.686 355.384 993.392C355.479 993.761 355.479 994.149 355.384 994.518Z" fill="#0086C9"/>
<path d="M282.931 1017.13C282.817 1017.85 282.46 1018.51 281.923 1018.99C281.386 1019.47 280.701 1019.75 279.985 1019.78C279.268 1019.81 278.565 1019.58 277.994 1019.14C277.423 1018.7 277.02 1018.07 276.853 1017.36C276.759 1016.99 276.759 1016.6 276.853 1016.23C276.974 1015.51 277.334 1014.86 277.872 1014.38C278.41 1013.9 279.093 1013.63 279.807 1013.6C280.521 1013.57 281.222 1013.8 281.793 1014.23C282.365 1014.67 282.771 1015.29 282.944 1016C283.04 1016.37 283.036 1016.76 282.931 1017.13Z" fill="#0086C9"/>
<path d="M409.539 953.753C409.416 954.47 409.055 955.122 408.516 955.599C407.977 956.077 407.294 956.352 406.58 956.378C405.866 956.403 405.165 956.178 404.595 955.739C404.025 955.301 403.62 954.677 403.448 953.97C403.36 953.6 403.36 953.214 403.448 952.844C403.571 952.127 403.932 951.475 404.471 950.998C405.009 950.52 405.693 950.245 406.407 950.219C407.121 950.194 407.821 950.419 408.392 950.858C408.962 951.296 409.367 951.92 409.539 952.627C409.64 952.995 409.64 953.384 409.539 953.753Z" fill="#0086C9"/>
<path d="M328.659 941.828C328.542 942.548 328.184 943.205 327.646 943.687C327.108 944.169 326.423 944.446 325.707 944.472C324.991 944.498 324.288 944.27 323.718 943.828C323.148 943.385 322.746 942.755 322.58 942.045C322.479 941.677 322.479 941.288 322.58 940.919C322.697 940.199 323.054 939.542 323.593 939.06C324.131 938.578 324.816 938.301 325.532 938.275C326.248 938.249 326.951 938.477 327.521 938.919C328.091 939.362 328.493 939.992 328.659 940.702C328.759 941.07 328.759 941.459 328.659 941.828Z" fill="#0086C9"/>
<path d="M309.921 904.568C309.799 905.285 309.439 905.938 308.902 906.417C308.364 906.897 307.681 907.173 306.967 907.2C306.253 907.227 305.551 907.003 304.98 906.566C304.409 906.128 304.003 905.504 303.829 904.798C303.729 904.43 303.729 904.04 303.829 903.672C303.951 902.955 304.311 902.302 304.848 901.822C305.386 901.343 306.069 901.067 306.783 901.04C307.497 901.013 308.199 901.237 308.77 901.674C309.341 902.111 309.747 902.735 309.921 903.442C310.008 903.812 310.008 904.198 309.921 904.568Z" fill="#0086C9"/>
<path d="M223.464 861.973C223.343 862.69 222.983 863.343 222.445 863.822C221.907 864.302 221.224 864.578 220.51 864.605C219.796 864.632 219.095 864.408 218.524 863.971C217.953 863.533 217.546 862.909 217.373 862.203C217.279 861.834 217.279 861.446 217.373 861.077C217.494 860.36 217.854 859.707 218.392 859.227C218.93 858.748 219.613 858.472 220.327 858.445C221.041 858.418 221.742 858.642 222.314 859.079C222.885 859.517 223.291 860.141 223.464 860.847C223.552 861.217 223.552 861.603 223.464 861.973Z" fill="#0086C9"/>
<path d="M249.474 784.344C249.353 785.061 248.993 785.714 248.455 786.194C247.918 786.673 247.234 786.949 246.52 786.976C245.806 787.003 245.105 786.779 244.534 786.342C243.963 785.905 243.556 785.28 243.383 784.574C243.29 784.205 243.29 783.818 243.383 783.448C243.505 782.731 243.864 782.078 244.402 781.599C244.94 781.119 245.623 780.843 246.337 780.816C247.051 780.789 247.752 781.013 248.324 781.45C248.895 781.888 249.301 782.512 249.474 783.218C249.562 783.588 249.562 783.974 249.474 784.344Z" fill="#0086C9"/>
<path d="M26.6768 872.093C26.5619 872.814 26.2056 873.472 25.6684 873.956C25.1312 874.439 24.4463 874.718 23.7301 874.745C23.0138 874.772 22.3105 874.546 21.7396 874.104C21.1686 873.663 20.7653 873.034 20.5982 872.324C20.4975 871.955 20.4975 871.566 20.5982 871.198C20.7131 870.477 21.0694 869.819 21.6066 869.336C22.1437 868.852 22.8286 868.573 23.5449 868.546C24.2611 868.519 24.9645 868.745 25.5354 869.187C26.1064 869.628 26.5097 870.257 26.6768 870.967C26.7768 871.336 26.7768 871.725 26.6768 872.093Z" fill="#0086C9"/>
<path d="M98.3763 800.21C98.2533 800.927 97.8922 801.579 97.3535 802.057C96.8148 802.535 96.1312 802.81 95.4173 802.835C94.7035 802.861 94.0027 802.635 93.4324 802.197C92.8622 801.759 92.4572 801.134 92.2852 800.428C92.1911 800.059 92.1911 799.671 92.2852 799.302C92.4082 798.585 92.7694 797.933 93.3081 797.455C93.8468 796.977 94.5303 796.703 95.2442 796.677C95.9581 796.652 96.6589 796.877 97.2291 797.315C97.7993 797.753 98.2044 798.378 98.3763 799.084C98.4643 799.454 98.4643 799.84 98.3763 800.21Z" fill="#0086C9"/>
<path d="M301.255 677.376C301.134 678.093 300.774 678.746 300.236 679.226C299.698 679.705 299.015 679.981 298.301 680.008C297.587 680.035 296.886 679.811 296.315 679.374C295.743 678.936 295.337 678.312 295.164 677.606C295.064 677.238 295.064 676.849 295.164 676.48C295.279 675.759 295.635 675.101 296.172 674.618C296.709 674.135 297.394 673.856 298.111 673.829C298.827 673.801 299.53 674.028 300.101 674.469C300.672 674.911 301.075 675.54 301.242 676.25C301.341 676.618 301.345 677.006 301.255 677.376Z" fill="#0086C9"/>
<path d="M224.469 723.438C224.354 724.159 223.998 724.817 223.461 725.3C222.923 725.783 222.239 726.062 221.522 726.09C220.806 726.117 220.103 725.89 219.532 725.449C218.961 725.008 218.558 724.378 218.39 723.668C218.296 723.299 218.296 722.911 218.39 722.542C218.512 721.825 218.872 721.172 219.409 720.693C219.947 720.213 220.63 719.937 221.344 719.91C222.058 719.883 222.76 720.107 223.331 720.544C223.902 720.982 224.308 721.606 224.482 722.312C224.577 722.681 224.573 723.071 224.469 723.438Z" fill="#0086C9"/>
<path d="M188.877 635.522C188.755 636.24 188.395 636.893 187.858 637.372C187.32 637.851 186.637 638.128 185.923 638.155C185.209 638.182 184.507 637.958 183.936 637.52C183.365 637.083 182.959 636.459 182.785 635.753C182.685 635.384 182.685 634.995 182.785 634.627C182.908 633.91 183.27 633.258 183.808 632.78C184.347 632.302 185.031 632.027 185.744 632.002C186.458 631.976 187.159 632.202 187.729 632.64C188.3 633.078 188.705 633.703 188.877 634.409C188.964 634.775 188.964 635.157 188.877 635.522Z" fill="#0086C9"/>
<path d="M203.119 923.363C203.002 924.084 202.645 924.741 202.106 925.223C201.568 925.705 200.883 925.982 200.167 926.008C199.451 926.033 198.748 925.806 198.178 925.363C197.608 924.921 197.206 924.291 197.04 923.581C196.947 923.216 196.947 922.833 197.04 922.468C197.148 921.74 197.503 921.074 198.042 920.584C198.58 920.094 199.27 919.811 199.992 919.783C200.714 919.756 201.423 919.986 201.996 920.434C202.569 920.882 202.97 921.52 203.131 922.237C203.228 922.607 203.224 922.996 203.119 923.363Z" fill="#0086C9"/>
<path d="M169.963 1052.28C169.84 1052.99 169.479 1053.64 168.94 1054.12C168.401 1054.6 167.718 1054.88 167.004 1054.9C166.29 1054.93 165.589 1054.7 165.019 1054.26C164.449 1053.82 164.044 1053.2 163.872 1052.49C163.771 1052.12 163.771 1051.74 163.872 1051.37C163.988 1050.65 164.346 1049.99 164.884 1049.51C165.422 1049.03 166.108 1048.75 166.824 1048.72C167.54 1048.7 168.243 1048.92 168.812 1049.37C169.382 1049.81 169.785 1050.44 169.95 1051.15C170.049 1051.52 170.053 1051.91 169.963 1052.28Z" fill="#0086C9"/>
<path d="M544.335 1062.51C544.212 1063.23 543.851 1063.88 543.312 1064.36C542.774 1064.84 542.09 1065.11 541.376 1065.14C540.662 1065.16 539.961 1064.94 539.391 1064.5C538.821 1064.06 538.416 1063.44 538.244 1062.73C538.143 1062.36 538.143 1061.97 538.244 1061.6C538.367 1060.89 538.728 1060.23 539.267 1059.76C539.806 1059.28 540.489 1059 541.203 1058.98C541.917 1058.95 542.618 1059.18 543.188 1059.62C543.758 1060.05 544.163 1060.68 544.335 1061.39C544.423 1061.76 544.423 1062.14 544.335 1062.51Z" fill="#0086C9"/>
</g>
<g opacity="0.5">
<path d="M2036.53 240.343L2014.84 33.893L1859.12 -32.3424L1859.27 -32.7874L2015.25 33.5497L2036.81 238.766L2167.62 -23.7466L2168.55 172.594L2168.1 172.607L2167.18 -21.852L2036.53 240.343Z" fill="#0086C9"/>
<path d="M2037.1 239.808H2036.67L1844.69 235.917L1951.33 109.143L1859.01 -32.4189L1859.37 -32.6987L1951.61 108.762L2014.85 33.5621L2015.2 33.8927L1951.87 109.169L2037.1 239.808ZM1845.69 235.447L2036.19 239.262L1951.61 109.525L1845.69 235.447Z" fill="#0086C9"/>
<path d="M1845.37 236.49L1844.99 235.803L1765.03 88.4174L1765.14 88.2902L1859.41 -33.2705V-32.5457L1845.37 236.49ZM1765.62 88.4682L1845 234.862L1858.93 -31.8464L1765.62 88.4682Z" fill="#0086C9"/>
<path d="M1845.05 235.867L1610.57 55.0517L1764.76 88.0613L1623.69 -89.6132L1624.03 -89.9311L1765.94 88.8115L1612.51 55.9545L1845.31 235.473L1845.05 235.867Z" fill="#0086C9"/>
<path d="M1904.14 165.588L1853.61 69.2294L1624.05 -89.359L1611.76 55.522L1609.24 187.497L1765.23 88.2264L1765.47 88.646L1608.77 188.349L1608.79 187.916L1611.33 55.4966L1623.67 -90.1855L1623.98 -89.9694L1853.95 68.886L1904.53 165.346L1904.14 165.588Z" fill="#0086C9"/>
<path d="M1922.57 327.61L1922.25 327.241L1845.08 235.905L1608.87 188.145V188.044L1537.48 52.4832L1439.38 48.1599V47.6894L1537.2 52L1488.98 -39.552L1612.23 55.8146L1537.95 52.534L1609.15 187.713L1845.3 235.46L1922.22 326.503L1951.72 109.868L1854.01 69.7254L1854.18 69.2677L1952.28 109.601L1922.57 327.61ZM1537.69 52.0127L1610.76 55.2424L1490.42 -37.899L1537.69 52.0127Z" fill="#0086C9"/>
<path d="M1549.33 251.583L1549.19 251.316L1439.27 48.1472L1298.49 33.5878L1489.65 -38.8908L1623.78 -89.9311L1623.93 -89.4733L1489.88 -38.4712L1439.69 47.9946L1609.35 187.904L1609.16 188.095L1549.33 251.583ZM1440.16 48.8592L1549.45 250.808L1608.67 187.904L1440.16 48.8592ZM1300.54 33.3081L1439.3 47.6767L1489.22 -38.2805L1300.54 33.3081Z" fill="#0086C9"/>
<path d="M2211.24 269.029L2114.89 153.648L2101.33 304.887L2036.54 239.771L1764.64 88.3414L2015.11 33.461L2015.21 33.5628L2114.52 152.517L2122.23 66.6359L2211.24 269.029ZM2114.95 153L2209.53 266.27L2122.51 68.4161L2114.95 153ZM1766.02 88.5448L2036.8 239.364L2100.95 303.832L2114.48 153.165L2014.97 34.0459L1766.02 88.5448Z" fill="#0086C9"/>
<path d="M1878.42 505.996H1877.98L1857.25 336.218L1762 349.327L1845.37 235.015L1857.67 335.684L1922.34 326.783L2036.55 239.3L2036.81 239.694L1922.51 327.241L1857.7 336.141L1878.42 505.996ZM1762.98 348.768L1857.19 335.811L1845.03 236.223L1762.98 348.768Z" fill="#0086C9"/>
<path d="M1537.04 -219.349L1536.61 -219.212L1611.3 55.5683L1611.73 55.4321L1537.04 -219.349Z" fill="#0086C9"/>
<path d="M1429.58 255.296L1440.09 46.2268H1440.54L1430.08 254.024L1506.05 171.221C1506.32 170.814 1507.32 169.708 1510.53 166.134C1513.4 162.956 1517.51 158.429 1522.45 152.987L1558.69 113.263C1585.03 84.2972 1611.39 55.3439 1611.39 55.3439L1611.44 55.2803H1611.53L1804.53 35.9526L1489.58 -38.5224L1489.52 -38.6114L1455.38 -105.063L1588.25 -142.828L1588.37 -142.37L1455.96 -104.758L1489.87 -38.942L1807.43 36.1434L1611.64 55.738C1608.76 58.9169 1510.52 166.847 1506.51 171.45L1506.36 171.602L1429.58 255.296Z" fill="#0086C9"/>
<path d="M2000.2 461.466L1922.5 327.673L1878.29 506.543L1878.02 506.174L1762.22 349.112L1762.27 348.972L1849.99 136.215L1547.91 250.477L1547.76 250.019L1850.81 135.401L1850.6 135.91L1762.74 349.035L1878.09 505.5L1922.33 326.478L1922.6 326.948L1999.97 460.144L2036.47 239.389L2036.57 239.338L2279.65 115.718L2279.37 116.341L2210.46 268.05L2210.06 267.834L2278.68 116.748L2036.87 239.72L2000.2 461.466Z" fill="#0086C9"/>
<path d="M2100.98 304.143L1878.12 505.929L1878.4 506.3L2101.27 304.514L2100.98 304.143Z" fill="#0086C9"/>
<path d="M2083.33 404.412L1922.2 327.241L1922.19 327.101L1904.31 167.063L1857.55 336.091L1857.12 335.951L1904.48 164.698L1922.63 326.91L2082.61 403.547L2036.36 239.262L2036.7 239.313L2210.28 267.707L2210.22 268.177L2036.98 239.847L2083.33 404.412Z" fill="#0086C9"/>
<path d="M1704.66 11.8843L1611.46 55.2846L1611.64 55.7284L1704.83 12.3281L1704.66 11.8843Z" fill="#0086C9"/>
<path d="M1623.78 -89.9132L1439.26 47.6809L1439.51 48.0787L1624.03 -89.5155L1623.78 -89.9132Z" fill="#0086C9"/>
<path d="M1729.58 43.4373L1608.83 187.734L1609.16 188.058L1729.91 43.7615L1729.58 43.4373Z" fill="#0086C9"/>
<path d="M1762.91 349.875L1608.9 188.146L1337.4 144.493L1337.76 144.15L1439.18 47.804L1455.36 -104.35L1299.65 33.6261L1299.37 33.2574L1455.94 -105.482L1439.61 48.0456L1439.55 48.0964L1338.42 144.162L1609.12 187.7L1609.16 187.751L1762.03 348.273L1704.27 127.238L1704.69 127.098L1762.91 349.875Z" fill="#0086C9"/>
<path d="M1856.67 68.7718C1856.72 69.4976 1856.54 70.2206 1856.15 70.817C1855.77 71.4134 1855.2 71.8462 1854.55 72.0414C1853.9 72.2367 1853.21 72.1822 1852.6 71.8873C1851.98 71.5924 1851.48 71.0755 1851.18 70.4248C1851 70.0999 1850.91 69.7327 1850.9 69.3567C1850.84 68.6297 1851.02 67.9043 1851.41 67.3052C1851.79 66.7061 1852.36 66.2707 1853.01 66.0736C1853.66 65.8766 1854.35 65.9302 1854.97 66.2254C1855.58 66.5205 1856.09 67.0387 1856.39 67.691C1856.57 68.0188 1856.66 68.3912 1856.67 68.7718Z" fill="#0086C9"/>
<path d="M1919.39 55.0262C1919.45 55.7532 1919.27 56.4786 1918.88 57.0777C1918.5 57.6768 1917.93 58.1122 1917.28 58.3092C1916.63 58.5063 1915.94 58.4526 1915.32 58.1575C1914.71 57.8624 1914.2 57.3442 1913.9 56.6919C1913.73 56.3615 1913.63 55.9907 1913.62 55.6111C1913.57 54.8872 1913.76 54.1688 1914.15 53.5769C1914.54 52.9849 1915.1 52.5557 1915.75 52.3615C1916.4 52.1674 1917.08 52.2201 1917.7 52.511C1918.31 52.8018 1918.82 53.3129 1919.12 53.958C1919.3 54.2817 1919.39 54.6504 1919.39 55.0262Z" fill="#0086C9"/>
<path d="M1907.05 165.525C1907.1 166.251 1906.92 166.973 1906.53 167.57C1906.14 168.166 1905.58 168.599 1904.93 168.794C1904.28 168.99 1903.59 168.935 1902.97 168.64C1902.36 168.345 1901.86 167.828 1901.55 167.178C1901.38 166.848 1901.28 166.477 1901.27 166.097C1901.23 165.373 1901.41 164.655 1901.8 164.063C1902.19 163.471 1902.76 163.042 1903.4 162.847C1904.05 162.653 1904.74 162.706 1905.35 162.997C1905.97 163.288 1906.47 163.799 1906.78 164.444C1906.95 164.771 1907.05 165.145 1907.05 165.525Z" fill="#0086C9"/>
<path d="M1853.35 135.643C1853.41 136.37 1853.23 137.095 1852.84 137.694C1852.46 138.293 1851.89 138.729 1851.24 138.926C1850.59 139.123 1849.9 139.069 1849.28 138.774C1848.67 138.479 1848.16 137.961 1847.86 137.309C1847.68 136.981 1847.59 136.608 1847.58 136.228C1847.53 135.502 1847.71 134.779 1848.1 134.183C1848.48 133.586 1849.05 133.153 1849.7 132.958C1850.35 132.763 1851.04 132.817 1851.65 133.112C1852.27 133.407 1852.77 133.924 1853.07 134.575C1853.25 134.9 1853.34 135.267 1853.35 135.643Z" fill="#0086C9"/>
<path d="M1768.32 87.985C1768.38 88.7108 1768.19 89.4337 1767.81 90.0301C1767.42 90.6265 1766.86 91.0594 1766.21 91.2546C1765.56 91.4499 1764.87 91.3954 1764.25 91.1005C1763.64 90.8056 1763.13 90.2886 1762.83 89.638C1762.65 89.3154 1762.55 88.9467 1762.55 88.5699C1762.49 87.8428 1762.67 87.1175 1763.06 86.5184C1763.44 85.9193 1764.01 85.4838 1764.66 85.2868C1765.31 85.0898 1766 85.1434 1766.62 85.4385C1767.24 85.7337 1767.74 86.2519 1768.04 86.9042C1768.22 87.232 1768.32 87.6044 1768.32 87.985Z" fill="#0086C9"/>
<path d="M1707.21 126.958C1707.27 127.685 1707.09 128.41 1706.7 129.009C1706.32 129.608 1705.75 130.044 1705.1 130.241C1704.45 130.438 1703.76 130.384 1703.14 130.089C1702.52 129.794 1702.02 129.276 1701.72 128.624C1701.55 128.293 1701.45 127.922 1701.44 127.543C1701.39 126.819 1701.58 126.101 1701.97 125.509C1702.35 124.917 1702.92 124.487 1703.57 124.293C1704.21 124.099 1704.9 124.152 1705.52 124.443C1706.13 124.734 1706.63 125.245 1706.94 125.89C1707.12 126.213 1707.21 126.582 1707.21 126.958Z" fill="#0086C9"/>
<path d="M1808.87 35.7491C1808.92 36.4762 1808.74 37.2015 1808.36 37.8006C1807.97 38.3997 1807.41 38.8352 1806.76 39.0322C1806.11 39.2293 1805.42 39.1756 1804.8 38.8805C1804.18 38.5854 1803.68 38.0672 1803.38 37.4149C1803.2 37.0845 1803.11 36.7137 1803.09 36.334C1803.05 35.6102 1803.24 34.8918 1803.63 34.2998C1804.01 33.7079 1804.58 33.2787 1805.22 33.0845C1805.87 32.8903 1806.56 32.9431 1807.17 33.2339C1807.79 33.5248 1808.29 34.0358 1808.6 34.681C1808.77 35.0047 1808.87 35.3734 1808.87 35.7491Z" fill="#0086C9"/>
<path d="M1732.69 43.3787C1732.74 44.1037 1732.56 44.8245 1732.17 45.419C1731.78 46.0135 1731.22 46.4453 1730.57 46.6412C1729.92 46.8371 1729.23 46.7852 1728.62 46.4943C1728 46.2033 1727.5 45.6911 1727.19 45.0444C1727.01 44.7156 1726.92 44.3431 1726.92 43.9636C1726.87 43.2377 1727.05 42.5148 1727.44 41.9184C1727.82 41.322 1728.39 40.8892 1729.04 40.6939C1729.68 40.4987 1730.38 40.5532 1730.99 40.8481C1731.61 41.1429 1732.11 41.6599 1732.41 42.3105C1732.59 42.6355 1732.68 43.0027 1732.69 43.3787Z" fill="#0086C9"/>
<path d="M1707.62 11.819C1707.67 12.5448 1707.49 13.2677 1707.11 13.8641C1706.72 14.4605 1706.15 14.8933 1705.51 15.0886C1704.86 15.2838 1704.17 15.2293 1703.55 14.9345C1702.93 14.6396 1702.43 14.1226 1702.13 13.472C1701.95 13.1443 1701.86 12.7711 1701.86 12.3912C1701.81 11.6653 1701.99 10.9424 1702.38 10.346C1702.76 9.74959 1703.33 9.31676 1703.98 9.12152C1704.63 8.92628 1705.32 8.98075 1705.93 9.27564C1706.55 9.57052 1707.05 10.0875 1707.35 10.7381C1707.53 11.0662 1707.62 11.4392 1707.62 11.819Z" fill="#0086C9"/>
<path d="M1442.79 47.3967C1442.85 48.1226 1442.66 48.8455 1442.28 49.4419C1441.89 50.0383 1441.33 50.4711 1440.68 50.6664C1440.03 50.8616 1439.34 50.8071 1438.72 50.5123C1438.11 50.2174 1437.6 49.7004 1437.3 49.0498C1437.12 48.7232 1437.02 48.35 1437.02 47.9689C1436.97 47.2431 1437.15 46.5202 1437.54 45.9238C1437.92 45.3274 1438.49 44.8945 1439.14 44.6993C1439.79 44.5041 1440.48 44.5585 1441.09 44.8534C1441.71 45.1483 1442.21 45.6653 1442.51 46.3159C1442.69 46.6425 1442.79 47.0157 1442.79 47.3967Z" fill="#0086C9"/>
<path d="M1614.43 55.2172C1614.5 55.9494 1614.33 56.6848 1613.95 57.295C1613.57 57.9053 1613 58.3515 1612.35 58.556C1611.69 58.7604 1610.99 58.7099 1610.37 58.4134C1609.75 58.1169 1609.24 57.5932 1608.94 56.9338C1608.76 56.606 1608.66 56.2336 1608.66 55.8529C1608.6 55.1271 1608.79 54.4042 1609.17 53.8078C1609.56 53.2114 1610.13 52.7785 1610.77 52.5833C1611.42 52.3881 1612.11 52.4425 1612.73 52.7374C1613.34 53.0323 1613.85 53.5493 1614.15 54.1999C1614.32 54.5077 1614.42 54.8577 1614.43 55.2172Z" fill="#0086C9"/>
<path d="M1611.9 187.637C1611.95 188.361 1611.76 189.079 1611.37 189.671C1610.98 190.263 1610.42 190.692 1609.77 190.886C1609.13 191.081 1608.44 191.028 1607.82 190.737C1607.21 190.446 1606.71 189.935 1606.4 189.29C1606.22 188.966 1606.13 188.598 1606.13 188.222C1606.07 187.495 1606.25 186.769 1606.64 186.17C1607.02 185.571 1607.59 185.136 1608.24 184.939C1608.89 184.742 1609.58 184.795 1610.2 185.09C1610.82 185.386 1611.32 185.904 1611.62 186.556C1611.79 186.886 1611.89 187.257 1611.9 187.637Z" fill="#0086C9"/>
<path d="M1848.13 235.384C1848.19 236.111 1848.01 236.836 1847.62 237.436C1847.24 238.035 1846.67 238.47 1846.02 238.667C1845.37 238.864 1844.68 238.811 1844.06 238.515C1843.45 238.22 1842.94 237.702 1842.64 237.05C1842.46 236.723 1842.36 236.35 1842.36 235.969C1842.31 235.243 1842.49 234.52 1842.88 233.924C1843.26 233.327 1843.83 232.895 1844.48 232.699C1845.12 232.504 1845.82 232.559 1846.43 232.853C1847.05 233.148 1847.55 233.665 1847.85 234.316C1848.03 234.641 1848.12 235.008 1848.13 235.384Z" fill="#0086C9"/>
<path d="M1860.22 335.735C1860.28 336.462 1860.1 337.187 1859.71 337.787C1859.33 338.386 1858.76 338.821 1858.11 339.018C1857.46 339.215 1856.77 339.162 1856.15 338.866C1855.53 338.571 1855.03 338.053 1854.73 337.401C1854.56 337.07 1854.46 336.7 1854.45 336.32C1854.39 335.594 1854.58 334.871 1854.96 334.275C1855.35 333.678 1855.92 333.246 1856.56 333.05C1857.21 332.855 1857.9 332.91 1858.52 333.204C1859.14 333.499 1859.64 334.016 1859.94 334.667C1860.12 334.99 1860.22 335.358 1860.22 335.735Z" fill="#0086C9"/>
<path d="M1925.47 326.504C1925.53 327.229 1925.34 327.952 1924.96 328.549C1924.57 329.145 1924 329.578 1923.36 329.773C1922.71 329.968 1922.02 329.914 1921.4 329.619C1920.78 329.324 1920.28 328.807 1919.98 328.157C1919.8 327.83 1919.7 327.457 1919.7 327.076C1919.65 326.35 1919.83 325.627 1920.22 325.031C1920.6 324.434 1921.17 324.001 1921.82 323.806C1922.46 323.611 1923.16 323.665 1923.77 323.96C1924.39 324.255 1924.89 324.772 1925.19 325.423C1925.37 325.749 1925.47 326.123 1925.47 326.504Z" fill="#0086C9"/>
<g opacity="0.15">
<path d="M1280.05 22.8563L1516.52 178.304L1354.95 189.417L1354.89 189.277L1280.05 22.8563ZM1515.04 177.986L1281.11 24.1151L1355.19 188.921L1515.04 177.986Z" fill="#0086C9"/>
<path d="M1544.71 -27.4467L1516.01 177.998L1650.45 285.75L1650.18 286.132L1515.52 178.215L1544.06 -25.9971L1354.62 190.689L1400.94 0.845389L1401.38 0.959825L1355.51 188.985L1544.71 -27.4467Z" fill="#0086C9"/>
<path d="M1544.03 -27.0909L1544.45 -26.951L1728.88 30.7904L1595.43 123.22L1650.58 285.814L1650.16 285.979L1595.04 123.487L1515.89 178.316L1515.64 177.909L1594.89 123.054L1544.03 -27.0909ZM1727.81 30.9557L1544.75 -26.3533L1595.31 122.762L1727.81 30.9557Z" fill="#0086C9"/>
<path d="M1728.38 30.0402L1728.57 30.8158L1770.29 195.597L1770.16 195.698L1649.9 286.564L1650.11 285.864L1728.38 30.0402ZM1769.78 195.342L1728.33 31.7059L1650.72 285.33L1769.78 195.342Z" fill="#0086C9"/>
<path d="M1728.53 30.7139L1911.46 271.254L1770.51 196.016L1864.01 407.247L1863.6 407.463L1769.56 194.961L1909.8 269.83L1728.18 31.019L1728.53 30.7139Z" fill="#0086C9"/>
<path d="M1654.56 81.9583L1680.19 189.214L1863.71 406.904L1910.42 270.454L1944.59 143.73L1770.1 195.724L1769.97 195.254L1945.24 143.044L1945.13 143.451L1910.84 270.606L1863.88 407.807L1863.63 407.515L1679.78 189.456L1654.14 82.0854L1654.56 81.9583Z" fill="#0086C9"/>
<path d="M1675.74 -79.6568L1675.95 -79.2118L1728.52 30.6887L1945.11 143.221V143.336L1981.4 294.295L2075.07 326.084L2074.93 326.542L1981.53 294.88L2006.03 396.833L1909.96 270.11L1980.89 294.155L1944.7 143.603L1728.19 31.0575V30.9812L1675.81 -78.5379L1595.23 122.368L1679.98 188.641L1679.71 189.036L1594.64 122.508L1675.74 -79.6568ZM1981.01 294.714L1911.23 271.051L2005.08 394.837L1981.01 294.714Z" fill="#0086C9"/>
<path d="M2017.85 98.7047L2017.92 99.0098L2075.21 326.097L2207.65 379.757L2005.61 396.045L1863.82 407.604V407.12L2005.53 395.562L2074.76 326.249L1944.56 143.324L1944.78 143.184L2017.85 98.7047ZM2074.51 325.156L2017.57 99.4294L1945.25 143.463L2074.51 325.156ZM2205.61 379.439L2075.08 326.504L2006.22 395.46L2205.61 379.439Z" fill="#0086C9"/>
<path d="M1863.83 406.777L1885.5 468.015L2006.21 395.168L1916.67 557.418L1885.27 468.702L1811.19 513.473L1863.83 406.777ZM1885.12 468.257L1863.77 407.883L1812.23 512.151L1885.12 468.257ZM1916.76 556.325L2004.95 396.452L1885.64 468.473L1916.76 556.325Z" fill="#0086C9"/>
<path d="M1382.92 -104.275L1448.2 34.236L1497.71 -107.962L1544.6 -26.875L1770.7 195.774L1515.63 178.341V178.214L1448.32 35.4313L1420.18 116.2L1382.92 -104.275ZM1447.99 34.8591L1383.9 -101.121L1420.36 114.395L1447.99 34.8591ZM1769.42 195.215L1544.22 -26.5698L1497.71 -106.881L1448.47 34.8209L1515.91 177.884L1769.42 195.215Z" fill="#0086C9"/>
<path d="M1761.27 -239.492L1761.71 -239.428L1740.9 -69.6626L1836.06 -55.5229L1728.06 31.4134L1740.41 -69.2557L1675.73 -78.8432L1544.46 -26.4933L1544.31 -26.951L1675.73 -79.3391L1740.41 -69.7262L1761.27 -239.492ZM1834.92 -55.205L1740.84 -69.1921L1728.65 30.3325L1834.92 -55.205Z" fill="#0086C9"/>
<path d="M1910.89 270.523L1910.44 270.534L1916.45 556.866L1916.9 556.855L1910.89 270.523Z" fill="#0086C9"/>
<path d="M2134.37 128.815L2073.99 327.775L2073.57 327.622L2133.54 129.921L2040.28 188.527C2039.91 188.845 2038.68 189.62 2034.74 192.138L2020.06 201.458C2007.92 209.177 1991.72 219.464 1975.52 229.738L1910.72 270.86H1910.64H1910.56L1719.55 235.256L2005.75 395.727V395.828L2022.8 469.579L1885.33 468.65V468.167L2022.23 469.083L2005.34 396.019L1716.82 234.163L1910.59 270.288C1914.11 268.037 2034.93 191.451 2039.94 188.171L2040.11 188.056L2134.37 128.815Z" fill="#0086C9"/>
<path d="M1632.98 -230.743L1675.83 -79.7077L1761.53 -240L1761.7 -239.568L1835.75 -55.332L1835.67 -55.2176L1699.8 125.547L2018.97 100.179L2018.99 100.65L1698.8 126.119L1699.13 125.674L1835.23 -55.4083L1761.47 -238.932L1675.7 -78.4997L1675.54 -79.0338L1632.88 -229.408L1544.55 -26.5059L1544.43 -26.4931L1280 24.5217L1280.41 24.0003L1383.45 -103.104L1383.77 -102.786L1281.16 23.8096L1544.24 -26.9382L1632.98 -230.743Z" fill="#0086C9"/>
<path d="M1597.33 -147.879L1596.89 -147.81L1623.31 51.2201L1623.76 51.1514L1597.33 -147.879Z" fill="#0086C9"/>
<path d="M1420.22 115.052L1420.2 115.534L1594.72 123.048L1594.74 122.565L1420.22 115.052Z" fill="#0086C9"/>
<path d="M1544.2 -26.8231L1487.23 117.819L1487.64 118.008L1544.62 -26.6337L1544.2 -26.8231Z" fill="#0086C9"/>
<path d="M1538.98 -199.03L1676 -79.1989L1675.98 -79.0718L1654.78 80.4957L1740.57 -69.5733L1740.95 -69.319L1654.02 82.7209L1675.52 -78.9955L1539.47 -197.988L1544.63 -26.3531L1544.3 -26.5057L1383.52 -102.735L1383.69 -103.168L1544.16 -27.1033L1538.98 -199.03Z" fill="#0086C9"/>
<path d="M1910.59 270.235L1810.17 285.941L1810.23 286.419L1910.66 270.713L1910.59 270.235Z" fill="#0086C9"/>
<path d="M2074.99 326.245L1863.72 407.19L1863.87 407.646L2075.14 326.701L2074.99 326.245Z" fill="#0086C9"/>
<path d="M1944.79 143.178L1793.49 248.537L1793.73 248.943L1945.03 143.585L1944.79 143.178Z" fill="#0086C9"/>
<path d="M1835.26 -56.2725L1945.08 143.196L2196.75 261.705L2196.31 261.934L2075.2 326.453L2022.99 468.816L2206.53 379.362L2206.71 379.807L2022.17 469.745L2074.85 326.097L2074.93 326.059L2195.69 261.731L1944.76 143.578L1944.72 143.514L1835.73 -54.4796L1838.35 175.201L1837.9 175.214L1835.26 -56.2725Z" fill="#0086C9"/>
<path d="M1677.12 188.807C1677.25 188.091 1677.6 187.445 1678.12 186.981C1678.64 186.517 1679.3 186.263 1679.97 186.263C1680.65 186.263 1681.3 186.517 1681.82 186.981C1682.34 187.445 1682.69 188.091 1682.82 188.807C1682.92 189.173 1682.92 189.56 1682.82 189.926C1682.69 190.642 1682.34 191.287 1681.82 191.752C1681.3 192.216 1680.65 192.47 1679.97 192.47C1679.3 192.47 1678.64 192.216 1678.12 191.752C1677.6 191.287 1677.25 190.642 1677.12 189.926C1677.03 189.559 1677.03 189.174 1677.12 188.807Z" fill="#0086C9"/>
<path d="M1647.46 285.406C1647.59 284.69 1647.95 284.045 1648.47 283.581C1648.99 283.116 1649.64 282.862 1650.31 282.862C1650.99 282.862 1651.64 283.116 1652.16 283.581C1652.68 284.045 1653.04 284.69 1653.17 285.406C1653.25 285.773 1653.25 286.158 1653.17 286.525C1653.03 287.231 1652.67 287.863 1652.15 288.317C1651.63 288.771 1650.98 289.018 1650.31 289.018C1649.65 289.018 1649 288.771 1648.48 288.317C1647.96 287.863 1647.6 287.231 1647.46 286.525C1647.38 286.158 1647.38 285.774 1647.46 285.406Z" fill="#0086C9"/>
<path d="M1613.25 184.433C1613.38 183.717 1613.74 183.071 1614.26 182.607C1614.78 182.143 1615.43 181.889 1616.11 181.889C1616.78 181.889 1617.43 182.143 1617.96 182.607C1618.48 183.071 1618.83 183.717 1618.96 184.433C1619.05 184.8 1619.05 185.185 1618.96 185.552C1618.82 186.258 1618.46 186.89 1617.94 187.344C1617.42 187.797 1616.77 188.045 1616.11 188.045C1615.44 188.045 1614.79 187.797 1614.27 187.344C1613.75 186.89 1613.39 186.258 1613.25 185.552C1613.16 185.186 1613.16 184.799 1613.25 184.433Z" fill="#0086C9"/>
<path d="M1512.91 177.579C1513.04 176.863 1513.4 176.217 1513.92 175.753C1514.44 175.289 1515.09 175.035 1515.77 175.035C1516.44 175.035 1517.09 175.289 1517.61 175.753C1518.13 176.217 1518.49 176.863 1518.62 177.579C1518.71 177.945 1518.71 178.332 1518.62 178.698C1518.49 179.414 1518.13 180.06 1517.61 180.524C1517.09 180.988 1516.44 181.242 1515.77 181.242C1515.09 181.242 1514.44 180.988 1513.92 180.524C1513.4 180.06 1513.04 179.414 1512.91 178.698C1512.83 178.331 1512.83 177.946 1512.91 177.579Z" fill="#0086C9"/>
<path d="M1352.38 188.819C1352.52 188.114 1352.88 187.481 1353.4 187.027C1353.91 186.574 1354.56 186.326 1355.23 186.326C1355.9 186.326 1356.54 186.574 1357.06 187.027C1357.58 187.481 1357.94 188.114 1358.08 188.819C1358.17 189.19 1358.17 189.58 1358.08 189.951C1357.95 190.667 1357.6 191.313 1357.08 191.777C1356.56 192.241 1355.9 192.495 1355.23 192.495C1354.55 192.495 1353.9 192.241 1353.38 191.777C1352.86 191.313 1352.51 190.667 1352.38 189.951C1352.28 189.581 1352.28 189.189 1352.38 188.819Z" fill="#0086C9"/>
<path d="M1417.39 114.764C1417.52 114.048 1417.88 113.402 1418.4 112.938C1418.92 112.474 1419.57 112.22 1420.25 112.22C1420.92 112.22 1421.57 112.474 1422.09 112.938C1422.61 113.402 1422.97 114.048 1423.1 114.764C1423.19 115.131 1423.19 115.516 1423.1 115.883C1422.97 116.599 1422.61 117.245 1422.09 117.709C1421.57 118.173 1420.92 118.427 1420.25 118.427C1419.57 118.427 1418.92 118.173 1418.4 117.709C1417.88 117.245 1417.52 116.599 1417.39 115.883C1417.31 115.516 1417.31 115.131 1417.39 114.764Z" fill="#0086C9"/>
<path d="M1484.62 117.408C1484.75 116.692 1485.1 116.047 1485.62 115.582C1486.15 115.118 1486.8 114.864 1487.47 114.864C1488.15 114.864 1488.8 115.118 1489.32 115.582C1489.84 116.047 1490.2 116.692 1490.32 117.408C1490.41 117.775 1490.41 118.16 1490.32 118.527C1490.2 119.243 1489.84 119.889 1489.32 120.353C1488.8 120.817 1488.15 121.071 1487.47 121.071C1486.8 121.071 1486.15 120.817 1485.62 120.353C1485.1 119.889 1484.75 119.243 1484.62 118.527C1484.53 118.161 1484.53 117.774 1484.62 117.408Z" fill="#0086C9"/>
<path d="M1620.64 50.6521C1620.77 49.9359 1621.12 49.2904 1621.64 48.8262C1622.16 48.362 1622.82 48.1081 1623.49 48.1081C1624.17 48.1081 1624.82 48.362 1625.34 48.8262C1625.86 49.2904 1626.21 49.9359 1626.34 50.6521C1626.43 51.019 1626.43 51.4041 1626.34 51.771C1626.21 52.4871 1625.86 53.1327 1625.34 53.5969C1624.82 54.0611 1624.17 54.315 1623.49 54.315C1622.82 54.315 1622.16 54.0611 1621.64 53.5969C1621.12 53.1327 1620.77 52.4871 1620.64 51.771C1620.55 51.4041 1620.55 51.019 1620.64 50.6521Z" fill="#0086C9"/>
<path d="M1521.06 119.761C1521.19 119.045 1521.55 118.399 1522.07 117.935C1522.59 117.471 1523.24 117.217 1523.91 117.217C1524.59 117.217 1525.24 117.471 1525.76 117.935C1526.28 118.399 1526.64 119.045 1526.77 119.761C1526.85 120.128 1526.85 120.513 1526.77 120.88C1526.65 121.598 1526.3 122.247 1525.78 122.718C1525.26 123.188 1524.61 123.449 1523.94 123.457C1523.26 123.464 1522.61 123.217 1522.08 122.759C1521.56 122.3 1521.2 121.659 1521.06 120.944C1520.97 120.556 1520.97 120.148 1521.06 119.761Z" fill="#0086C9"/>
<path d="M1651.75 81.2202C1651.88 80.5041 1652.24 79.8585 1652.76 79.3943C1653.28 78.9302 1653.93 78.6763 1654.61 78.6763C1655.28 78.6763 1655.93 78.9302 1656.45 79.3943C1656.97 79.8585 1657.33 80.5041 1657.46 81.2202C1657.55 81.5871 1657.55 81.9723 1657.46 82.3392C1657.33 83.0559 1656.98 83.7031 1656.46 84.1696C1655.94 84.6362 1655.29 84.893 1654.62 84.896C1653.94 84.899 1653.29 84.648 1652.76 84.1861C1652.24 83.7242 1651.89 83.0802 1651.75 82.3646C1651.66 81.9897 1651.66 81.5952 1651.75 81.2202Z" fill="#0086C9"/>
<path d="M1696.44 125.165C1696.57 124.449 1696.92 123.803 1697.44 123.339C1697.96 122.875 1698.62 122.621 1699.29 122.621C1699.97 122.621 1700.62 122.875 1701.14 123.339C1701.66 123.803 1702.01 124.449 1702.14 125.165C1702.23 125.532 1702.23 125.917 1702.14 126.284C1702.01 127 1701.66 127.646 1701.14 128.11C1700.62 128.574 1699.97 128.828 1699.29 128.828C1698.62 128.828 1697.96 128.574 1697.44 128.11C1696.92 127.646 1696.57 127 1696.44 126.284C1696.35 125.917 1696.35 125.532 1696.44 125.165Z" fill="#0086C9"/>
<path d="M1767.05 195.101C1767.18 194.384 1767.54 193.739 1768.06 193.275C1768.58 192.81 1769.23 192.557 1769.9 192.557C1770.58 192.557 1771.23 192.81 1771.75 193.275C1772.27 193.739 1772.63 194.384 1772.76 195.101C1772.84 195.467 1772.84 195.853 1772.76 196.219C1772.63 196.936 1772.27 197.581 1771.75 198.045C1771.23 198.51 1770.58 198.763 1769.9 198.763C1769.23 198.763 1768.58 198.51 1768.06 198.045C1767.54 197.581 1767.18 196.936 1767.05 196.219C1766.97 195.853 1766.97 195.467 1767.05 195.101Z" fill="#0086C9"/>
<path d="M1835.43 174.642C1835.56 173.926 1835.92 173.28 1836.44 172.816C1836.96 172.352 1837.61 172.098 1838.28 172.098C1838.96 172.098 1839.61 172.352 1840.13 172.816C1840.65 173.28 1841.01 173.926 1841.14 174.642C1841.22 175.009 1841.22 175.394 1841.14 175.761C1841.01 176.477 1840.65 177.122 1840.13 177.587C1839.61 178.051 1838.96 178.305 1838.28 178.305C1837.61 178.305 1836.96 178.051 1836.44 177.587C1835.92 177.122 1835.56 176.477 1835.43 175.761C1835.34 175.394 1835.34 175.009 1835.43 174.642Z" fill="#0086C9"/>
<path d="M1715.34 234.124C1715.46 233.408 1715.82 232.763 1716.34 232.299C1716.86 231.834 1717.51 231.581 1718.19 231.581C1718.86 231.581 1719.52 231.834 1720.04 232.299C1720.56 232.763 1720.91 233.408 1721.04 234.124C1721.13 234.491 1721.13 234.877 1721.04 235.243C1720.91 235.96 1720.56 236.605 1720.04 237.069C1719.52 237.534 1718.86 237.787 1718.19 237.787C1717.51 237.787 1716.86 237.534 1716.34 237.069C1715.82 236.605 1715.46 235.96 1715.34 235.243C1715.25 234.876 1715.25 234.492 1715.34 234.124Z" fill="#0086C9"/>
<path d="M1790.74 248.188C1790.86 247.472 1791.22 246.826 1791.74 246.362C1792.26 245.898 1792.91 245.644 1793.59 245.644C1794.26 245.644 1794.92 245.898 1795.44 246.362C1795.96 246.826 1796.31 247.472 1796.44 248.188C1796.53 248.555 1796.53 248.94 1796.44 249.307C1796.31 250.023 1795.96 250.669 1795.44 251.133C1794.92 251.597 1794.26 251.851 1793.59 251.851C1792.91 251.851 1792.26 251.597 1791.74 251.133C1791.22 250.669 1790.86 250.023 1790.74 249.307C1790.64 248.941 1790.64 248.554 1790.74 248.188Z" fill="#0086C9"/>
<path d="M1807.34 285.712C1807.47 284.996 1807.82 284.35 1808.34 283.886C1808.86 283.422 1809.52 283.168 1810.19 283.168C1810.87 283.168 1811.52 283.422 1812.04 283.886C1812.56 284.35 1812.92 284.996 1813.04 285.712C1813.13 286.079 1813.13 286.464 1813.04 286.831C1812.92 287.547 1812.56 288.193 1812.04 288.657C1811.52 289.121 1810.87 289.375 1810.19 289.375C1809.52 289.375 1808.86 289.121 1808.34 288.657C1807.82 288.193 1807.47 287.547 1807.34 286.831C1807.25 286.464 1807.25 286.079 1807.34 285.712Z" fill="#0086C9"/>
<path d="M1887.18 330.419C1887.31 329.703 1887.67 329.058 1888.19 328.594C1888.71 328.129 1889.36 327.875 1890.04 327.875C1890.71 327.875 1891.36 328.129 1891.89 328.594C1892.41 329.058 1892.76 329.703 1892.89 330.419C1892.98 330.786 1892.98 331.172 1892.89 331.538C1892.77 332.256 1892.42 332.906 1891.9 333.376C1891.39 333.846 1890.74 334.107 1890.06 334.115C1889.39 334.122 1888.73 333.876 1888.21 333.417C1887.68 332.959 1887.32 332.317 1887.18 331.602C1887.09 331.215 1887.09 330.807 1887.18 330.419Z" fill="#0086C9"/>
<path d="M1860.95 406.828C1861.08 406.112 1861.43 405.466 1861.95 405.002C1862.47 404.538 1863.13 404.284 1863.8 404.284C1864.48 404.284 1865.13 404.538 1865.65 405.002C1866.17 405.466 1866.53 406.112 1866.65 406.828C1866.74 407.195 1866.74 407.58 1866.65 407.947C1866.53 408.663 1866.17 409.309 1865.65 409.773C1865.13 410.237 1864.48 410.491 1863.8 410.491C1863.13 410.491 1862.47 410.237 1861.95 409.773C1861.43 409.309 1861.08 408.663 1860.95 407.947C1860.86 407.581 1860.86 407.194 1860.95 406.828Z" fill="#0086C9"/>
<path d="M1809.73 511.591C1809.86 510.875 1810.21 510.229 1810.73 509.765C1811.25 509.301 1811.9 509.047 1812.58 509.047C1813.25 509.047 1813.91 509.301 1814.43 509.765C1814.95 510.229 1815.3 510.875 1815.43 511.591C1815.52 511.958 1815.52 512.343 1815.43 512.71C1815.31 513.428 1814.96 514.077 1814.45 514.547C1813.93 515.018 1813.28 515.279 1812.6 515.286C1811.93 515.294 1811.27 515.047 1810.75 514.589C1810.22 514.13 1809.86 513.488 1809.73 512.773C1809.63 512.386 1809.63 511.978 1809.73 511.591Z" fill="#0086C9"/>
<path d="M1882.75 468.053C1882.88 467.337 1883.23 466.691 1883.75 466.227C1884.28 465.763 1884.93 465.509 1885.6 465.509C1886.28 465.509 1886.93 465.763 1887.45 466.227C1887.97 466.691 1888.33 467.337 1888.45 468.053C1888.55 468.419 1888.55 468.806 1888.45 469.172C1888.32 469.878 1887.96 470.51 1887.44 470.964C1886.92 471.418 1886.27 471.665 1885.6 471.665C1884.94 471.665 1884.29 471.418 1883.77 470.964C1883.25 470.51 1882.89 469.878 1882.75 469.172C1882.67 468.805 1882.67 468.42 1882.75 468.053Z" fill="#0086C9"/>
<path d="M1913.85 556.337C1913.98 555.621 1914.34 554.976 1914.86 554.511C1915.38 554.047 1916.03 553.793 1916.71 553.793C1917.38 553.793 1918.03 554.047 1918.55 554.511C1919.07 554.976 1919.43 555.621 1919.56 556.337C1919.65 556.704 1919.65 557.089 1919.56 557.456C1919.43 558.172 1919.07 558.818 1918.55 559.282C1918.03 559.746 1917.38 560 1916.71 560C1916.03 560 1915.38 559.746 1914.86 559.282C1914.34 558.818 1913.98 558.172 1913.85 557.456C1913.77 557.089 1913.77 556.704 1913.85 556.337Z" fill="#0086C9"/>
<path d="M1907.78 270.008C1907.9 269.292 1908.26 268.646 1908.78 268.182C1909.3 267.718 1909.95 267.464 1910.63 267.464C1911.3 267.464 1911.95 267.718 1912.48 268.182C1913 268.646 1913.35 269.292 1913.48 270.008C1913.57 270.375 1913.57 270.76 1913.48 271.127C1913.35 271.843 1913 272.489 1912.48 272.953C1911.95 273.417 1911.3 273.671 1910.63 273.671C1909.95 273.671 1909.3 273.417 1908.78 272.953C1908.26 272.489 1907.9 271.843 1907.78 271.127C1907.69 270.76 1907.69 270.375 1907.78 270.008Z" fill="#0086C9"/>
<path d="M1725.5 30.3453C1725.62 29.6276 1725.97 28.9779 1726.48 28.5078C1727 28.0377 1727.65 27.7764 1728.32 27.7689C1729 27.7614 1729.65 28.008 1730.18 28.4666C1730.7 28.9251 1731.06 29.5669 1731.2 30.2818C1731.29 30.653 1731.29 31.0422 1731.2 31.4134C1731.07 32.1296 1730.72 32.7751 1730.2 33.2393C1729.68 33.7035 1729.02 33.9574 1728.35 33.9574C1727.67 33.9574 1727.02 33.7035 1726.5 33.2393C1725.98 32.7751 1725.62 32.1296 1725.5 31.4134C1725.42 31.0627 1725.42 30.6961 1725.5 30.3453Z" fill="#0086C9"/>
<path d="M1377.01 88.176C1377.14 87.4599 1377.5 86.8143 1378.02 86.3501C1378.54 85.8859 1379.19 85.632 1379.86 85.632C1380.54 85.632 1381.19 85.8859 1381.71 86.3501C1382.23 86.8143 1382.59 87.4599 1382.72 88.176C1382.8 88.5429 1382.8 88.9281 1382.72 89.295C1382.58 90.0006 1382.22 90.6331 1381.7 91.0868C1381.18 91.5405 1380.53 91.788 1379.86 91.788C1379.2 91.788 1378.55 91.5405 1378.03 91.0868C1377.51 90.6331 1377.15 90.0006 1377.01 89.295C1376.93 88.9278 1376.93 88.5432 1377.01 88.176Z" fill="#0086C9"/>
<path d="M1591.92 122.279C1592.05 121.562 1592.41 120.917 1592.93 120.453C1593.45 119.989 1594.1 119.735 1594.78 119.735C1595.45 119.735 1596.1 119.989 1596.62 120.453C1597.14 120.917 1597.5 121.562 1597.63 122.279C1597.72 122.645 1597.72 123.032 1597.63 123.398C1597.51 124.115 1597.16 124.765 1596.64 125.235C1596.13 125.705 1595.47 125.966 1594.8 125.974C1594.13 125.982 1593.47 125.735 1592.94 125.276C1592.42 124.818 1592.06 124.176 1591.92 123.461C1591.83 123.074 1591.83 122.666 1591.92 122.279Z" fill="#0086C9"/>
</g>
</g>
</g>
<defs>
<filter id="filter0_f_1_2124" x="-480" y="-720" width="1440" height="1440" filterUnits="userSpaceOnUse" color-interpolation-filters="sRGB">
<feFlood flood-opacity="0" result="BackgroundImageFix"/>
<feBlend mode="normal" in="SourceGraphic" in2="BackgroundImageFix" result="shape"/>
<feGaussianBlur stdDeviation="240" result="effect1_foregroundBlur_1_2124"/>
</filter>
<filter id="filter1_f_1_2124" x="960" y="340" width="1440" height="1440" filterUnits="userSpaceOnUse" color-interpolation-filters="sRGB">
<feFlood flood-opacity="0" result="BackgroundImageFix"/>
<feBlend mode="normal" in="SourceGraphic" in2="BackgroundImageFix" result="shape"/>
<feGaussianBlur stdDeviation="240" result="effect1_foregroundBlur_1_2124"/>
</filter>
<clipPath id="clip0_1_2124">
<rect width="1920" height="1080" fill="white"/>
</clipPath>
</defs>
</svg>
